<svg width="32" height="32" viewBox="0 0 24 24" fill="none" xmlns="http://www.w3.org/2000/svg">
<path fill-rule="evenodd" clip-rule="evenodd" d="M0.608964 4.93853C0 6.4087 0 8.27247 0 12C0 15.7275 0 17.5913 0.608964 19.0615C1.42092 21.0217 2.97831 22.5791 4.93853 23.391C6.4087 24 8.27247 24 12 24C15.7275 24 17.5913 24 19.0615 23.391C21.0217 22.5791 22.5791 21.0217 23.391 19.0615C24 17.5913 24 15.7275 24 12C24 8.27247 24 6.4087 23.391 4.93853C22.5791 2.97831 21.0217 1.42092 19.0615 0.608964C17.5913 0 15.7275 0 12 0C8.27247 0 6.4087 0 4.93853 0.608964C2.97831 1.42092 1.42092 2.97831 0.608964 4.93853ZM4.40723 7.28667C4 8.26776 4 9.51184 4 12C4 14.4882 4 15.7322 4.40723 16.7133C4.94811 18.0164 5.98358 19.0519 7.28667 19.5928C8.26776 20 9.51184 20 12 20C14.4882 20 15.7322 20 16.7133 19.5928C18.0164 19.0519 19.0519 18.0164 19.5928 16.7133C20 15.7322 20 14.4882 20 12C20 9.51184 20 8.26776 19.5928 7.28667C19.0519 5.98358 18.0164 4.94811 16.7133 4.40723C15.7322 4 14.4882 4 12 4C9.51184 4 8.26776 4 7.28667 4.40723C5.98358 4.94811 4.94811 5.98358 4.40723 7.28667Z" fill="#F95959"/>
<path d="M9.60896 13.9385C9 15.4087 9 17.2725 9 21H13C13 18.5118 13 17.2678 13.4072 16.2867C13.9481 14.9836 14.9836 13.9481 16.2867 13.4072C17.2678 13 18.5118 13 21 13V9C17.2725 9 15.4087 9 13.9385 9.60896C11.9783 10.4209 10.4209 11.9783 9.60896 13.9385Z" fill="#F95959"/>
</svg>
